<svg id="Layer_1" data-name="Layer 1" xmlns="http://www.w3.org/2000/svg" viewBox="0 0 491.35 218.91"><defs><style>.cls-1{fill:#1a68b2;}.cls-2{fill:#f26f24;}</style></defs><path class="cls-1" d="M7.39,212.15,0,190H4.42L7.66,200c.86,2.8,1.58,5.4,2.18,8.09H9.9c.6-2.63,1.39-5.32,2.28-8L15.59,190H20.1l-8,22.17Z"/><path class="cls-1" d="M22.85,189.11,25.72,194H22.88l-4-4.88Zm-.9,23v-16h4.17v16Z"/><path class="cls-1" d="M42.84,191.59v4.61h4v3H42.78v7c0,2,.53,3,2.09,3a6.86,6.86,0,0,0,1.76-.28L46.7,212a9.88,9.88,0,0,1-3.12.47,4.72,4.72,0,0,1-3.52-1.33c-.87-.93-1.27-2.39-1.27-4.51V199.2H36.5v-3h2.29v-3.61Z"/><path class="cls-1" d="M50.29,201.37c0-2.16,0-3.69-.13-5.13h3.53l.14,3H54a4.78,4.78,0,0,1,4.39-3.4,4,4,0,0,1,.95.1v3.79a5.36,5.36,0,0,0-1.18-.13,3.56,3.56,0,0,0-3.63,3,6.52,6.52,0,0,0-.14,1.24v8.24H50.29Z"/><path class="cls-1" d="M66.77,191.59a2.28,2.28,0,0,1-4.55,0,2.28,2.28,0,0,1,4.55,0Zm-4.32,20.56V196.07h4.09v16.08Z"/><path class="cls-1" d="M74.29,205.34c.11,2.87,2.45,4.1,5.1,4.1a13.07,13.07,0,0,0,4.58-.71l.61,2.77a16.27,16.27,0,0,1-5.77,1c-5.36,0-8.52-3.17-8.52-8,0-4.41,2.78-8.55,8.08-8.55s7.13,4.24,7.13,7.73a9.28,9.28,0,0,1-.14,1.7Zm4.91-16.23L82.53,194H79.64l-1.83-3h-.07l-1.8,3H73.06l3.29-4.88Zm2.36,13.3c0-1.49-.65-3.93-3.43-3.93-2.58,0-3.67,2.28-3.84,3.93Zm-1.74,14.34a2,2,0,0,1-2.07,2,2,2,0,1,1,.07-4.09A2,2,0,0,1,79.82,216.75Z"/><path class="cls-1" d="M103.73,207.35c0,1.91.07,3.48.13,4.8h-3.65l-.2-2.43h-.07a6,6,0,0,1-5.27,2.79c-3,0-5.74-1.74-5.74-7v-9.39h4.15v8.7c0,2.66.88,4.37,3.08,4.37a3.5,3.5,0,0,0,3.18-2.17,3.71,3.71,0,0,0,.23-1.25v-9.65h4.16Z"/><path class="cls-1" d="M115.87,200.93c0-1.83,0-3.38-.13-4.75h3.66l.21,2.39h.1a6,6,0,0,1,5.26-2.75c2.89,0,5.88,1.8,5.88,6.85v9.48h-4.18v-9c0-2.3-.88-4-3.16-4a3.48,3.48,0,0,0-3.26,2.36,4.12,4.12,0,0,0-.17,1.31v9.38h-4.21Z"/><path class="cls-1" d="M150.5,196.18c-.07,1.07-.13,2.38-.13,4.57v9c0,3.34-.72,5.72-2.46,7.22a9.9,9.9,0,0,1-6.43,1.93,12.22,12.22,0,0,1-5.81-1.27l.92-3a10.4,10.4,0,0,0,4.86,1.21c2.73,0,4.78-1.37,4.78-4.8v-1.38h-.07a5.67,5.67,0,0,1-4.85,2.36c-4.13,0-7.07-3.27-7.07-7.78,0-5.23,3.55-8.39,7.55-8.39a5.29,5.29,0,0,1,4.82,2.48h.07l.17-2.12Zm-4.34,6.36a3.78,3.78,0,0,0-.13-1.07,3.47,3.47,0,0,0-3.42-2.58c-2.36,0-4.1,2-4.1,5.19,0,2.71,1.43,4.9,4.06,4.9a3.57,3.57,0,0,0,3.42-2.42,6.74,6.74,0,0,0,.17-1.43Z"/><path class="cls-1" d="M172.41,192.35a5.82,5.82,0,0,1,.67,2.69,3,3,0,0,1-3,3.08l-.31,0v9.21c0,1.9.07,3.48.14,4.79h-3.63l-.2-2.43H166a5.93,5.93,0,0,1-5.24,2.79c-3,0-5.71-1.74-5.71-6.95v-9.38h4.13v8.69c0,2.66.88,4.36,3.06,4.36a3.49,3.49,0,0,0,3.16-2.16,3.71,3.71,0,0,0,.23-1.25v-9.64h2.76c1.27,0,1.68-.52,1.68-1.31a4.11,4.11,0,0,0-.67-2Z"/><path class="cls-1" d="M191.36,193.25A6.08,6.08,0,0,1,192,196a3,3,0,0,1-3.21,3.18,8.18,8.18,0,0,1,1.39,4.79c0,5.88-4.26,8.5-8.45,8.5-4.67,0-8.25-3.12-8.25-8.23s3.55-8.47,8.52-8.47a9.66,9.66,0,0,1,2.9.43,10.91,10.91,0,0,0,2.81.88,1.1,1.1,0,0,0,1.25-1.24,4.41,4.41,0,0,0-.64-2.14Zm-10.26-4.14L184,194h-2.84l-4-4.88Zm-3.3,15.08c0,3.07,1.58,5.38,4.14,5.38,2.39,0,4.06-2.25,4.06-5.45,0-2.48-1.16-5.31-4-5.31S177.8,201.55,177.8,204.19Z"/><path class="cls-1" d="M198.69,191.59a2.28,2.28,0,0,1-4.55,0,2.28,2.28,0,0,1,4.55,0Zm-4.36,20.56v-16h4.16v16Z"/><path class="cls-1" d="M225.58,188.71v18.92c0,1.65.07,3.43.14,4.52H222l-.17-2.54h-.07a6,6,0,0,1-5.38,2.9c-3.93,0-7-3.27-7-8.22,0-5.38,3.42-8.4,7.38-8.4a5.3,5.3,0,0,1,4.64,2.11h.06v-9.29Zm-4.17,14.06a5.33,5.33,0,0,0-.1-1.05,3.61,3.61,0,0,0-3.59-2.87c-2.67,0-4.16,2.31-4.16,5.31s1.49,5.08,4.13,5.08a3.66,3.66,0,0,0,3.59-2.87,4.48,4.48,0,0,0,.13-1.19Z"/><path class="cls-1" d="M239.58,212.15l-.27-1.76h-.11a6.27,6.27,0,0,1-4.9,2.12c-3.34,0-5.21-2.32-5.21-4.73,0-4,3.71-6,9.84-6v-.26c0-1-.44-2.77-3.37-2.77a9.1,9.1,0,0,0-4.46,1.17l-.82-2.61a12.45,12.45,0,0,1,6-1.4c5.32,0,6.85,3.23,6.85,6.69v5.74a24.45,24.45,0,0,0,.24,3.82Zm-1.67-23,3.34,4.88h-2.9l-1.84-3h-.07l-1.8,3h-2.86l3.3-4.88ZM239,204.29c-3-.06-5.79.56-5.79,3a2.17,2.17,0,0,0,2.39,2.31,3.39,3.39,0,0,0,3.27-2.22,2.82,2.82,0,0,0,.13-.89Z"/><path class="cls-1" d="M247.89,201c0-1.84,0-3.38-.13-4.75h3.66l.21,2.39h.1a6,6,0,0,1,5.26-2.75c2.88,0,5.87,1.8,5.87,6.84v9.47h-4.18v-9c0-2.29-.88-4-3.15-4a3.5,3.5,0,0,0-3.26,2.36,4.12,4.12,0,0,0-.17,1.31v9.37h-4.21Z"/><path class="cls-1" d="M289.76,194.14v13.47c0,1.65.07,3.43.14,4.52h-3.72l-.17-2.54h-.07a6,6,0,0,1-5.38,2.9c-3.93,0-7.05-3.26-7.05-8.21,0-5.38,3.42-8.37,7.38-8.37a5.29,5.29,0,0,1,4.64,2.11h.07v-3.88h-6.44v-2.28h6.44V188.7h4.19v3.16h2.74v2.28Zm-4.16,8.62a5.44,5.44,0,0,0-.1-1.06,3.48,3.48,0,0,0-3.6-2.67c-2.68,0-4.15,2.11-4.15,5.11s1.49,5.09,4.13,5.09a3.65,3.65,0,0,0,3.58-2.87,4.13,4.13,0,0,0,.14-1.19Z"/><path class="cls-1" d="M312.06,192.39a5.69,5.69,0,0,1,.68,2.68,3,3,0,0,1-3,3.08l-.31,0v9.19c0,1.9.07,3.47.14,4.78h-3.67l-.2-2.42h-.07a6,6,0,0,1-5.3,2.78c-3,0-5.76-1.73-5.76-6.94v-9.35h4.17v8.67c0,2.65.88,4.35,3.09,4.35a3.52,3.52,0,0,0,3.19-2.16,3.7,3.7,0,0,0,.24-1.24v-9.62H308c1.29,0,1.7-.53,1.7-1.31a4,4,0,0,0-.68-2Z"/><path class="cls-1" d="M330.86,193.14a6.06,6.06,0,0,1,.67,2.8,3,3,0,0,1-3.2,3.2,8.25,8.25,0,0,1,1.38,4.82c0,5.91-4.25,8.55-8.43,8.55a7.85,7.85,0,0,1-8.22-8.28c0-5.29,3.54-8.52,8.49-8.52a10,10,0,0,1,2.9.43,10.75,10.75,0,0,0,2.8.89,1.11,1.11,0,0,0,1.25-1.25,4.45,4.45,0,0,0-.64-2.15Zm-13.52,11c0,3.1,1.55,5.44,4.08,5.44,2.36,0,4-2.27,4-5.51,0-2.51-1.21-5.19-4.05-5.19S317.34,201.45,317.34,204.13Zm6.13,12.7a2,2,0,0,1-2,2,2,2,0,1,1,0-4.09A2,2,0,0,1,323.47,216.83Z"/><path class="cls-1" d="M345.87,211.66a12.29,12.29,0,0,1-4.64.82c-5.11,0-8.44-3.17-8.44-8.11,0-4.77,3.37-8.49,9.12-8.49a10.72,10.72,0,0,1,4,.75l-.74,3A7.42,7.42,0,0,0,342,199a5.15,5.15,0,0,0,0,10.29,8.4,8.4,0,0,0,3.26-.62Z"/><path class="cls-1" d="M356.39,212.15c.07-1.09.14-2.87.14-4.52V188.71h4.12v9.74h.06a5.94,5.94,0,0,1,5.23-2.57c4,0,6.83,3.1,6.8,8,0,5.78-3.72,8.65-7.41,8.65a5.62,5.62,0,0,1-5.15-2.77h-.07l-.2,2.41Zm4.26-6.59a4,4,0,0,0,.1.94,3.77,3.77,0,0,0,3.65,2.81c2.58,0,4.15-2,4.15-5.22,0-2.8-1.37-5.08-4.12-5.08a3.83,3.83,0,0,0-3.65,2.93,4.47,4.47,0,0,0-.13,1Z"/><path class="cls-1" d="M385.86,212.15l-.27-1.76h-.1a6.27,6.27,0,0,1-4.9,2.12c-3.33,0-5.2-2.32-5.2-4.74,0-4,3.7-6,9.83-6v-.26c0-1.05-.44-2.78-3.37-2.78a9.05,9.05,0,0,0-4.46,1.18l-.81-2.62a12.37,12.37,0,0,1,6-1.4c5.31,0,6.84,3.23,6.84,6.7v5.75a24.45,24.45,0,0,0,.24,3.82Zm-4.32-17.93c.45-1.51,1.91-1.94,1.91-3.16a1.05,1.05,0,0,0-1.09-1.09,2.12,2.12,0,0,0-1.56,1.12l-1.43-.83a4,4,0,0,1,3.77-2.44,2.86,2.86,0,0,1,3.13,2.71c0,2-1.87,2.61-2.62,4.19Zm3.78,10.07c-3-.06-5.78.56-5.78,3a2.16,2.16,0,0,0,2.38,2.31,3.37,3.37,0,0,0,3.26-2.22,2.58,2.58,0,0,0,.14-.89Z"/><path class="cls-1" d="M409.72,204c0,5.82-4.29,8.42-8.51,8.42-4.7,0-8.3-3.09-8.3-8.16s3.57-8.39,8.57-8.39S409.72,199.2,409.72,204Zm-12.49.16c0,3.06,1.56,5.37,4.12,5.37,2.38,0,4-2.25,4-5.43,0-2.48-1.15-5.3-4-5.3S397.23,201.54,397.23,204.17Z"/><path class="cls-1" d="M420.58,188.72h4.18v9.7h.07a5.56,5.56,0,0,1,2.06-1.83,5.72,5.72,0,0,1,2.83-.72c2.8,0,5.73,1.8,5.73,6.9v9.38H431.3v-8.93c0-2.32-.87-4.05-3.17-4.05a3.32,3.32,0,0,0-3.37,3.47v9.51h-4.18Z"/><path class="cls-1" d="M444.66,191.59a2.31,2.31,0,0,1-4.61,0,2.31,2.31,0,0,1,4.61,0Zm-4.37,20.56v-16h4.13v16Z"/><path class="cls-1" d="M452.09,205.32c.1,2.87,2.42,4.12,5,4.12a12.77,12.77,0,0,0,4.54-.72l.61,2.78a15.92,15.92,0,0,1-5.72,1c-5.31,0-8.44-3.17-8.44-8,0-4.41,2.76-8.56,8-8.56s7.07,4.25,7.07,7.75a9.28,9.28,0,0,1-.14,1.7Zm5.39-16.21,2.9,4.88h-2.74l-1.55-3h-.16l-1.59,3h-2.7l2.87-4.88Zm1.88,13.3c0-1.49-.63-3.93-3.34-3.93-2.5,0-3.76,2.28-3.92,3.93Zm.54-11.61c.49-1.33,1.58-1.63,1.58-2.63a1,1,0,0,0-1-1c-.63,0-1.15.62-1.48,1.11l-1.29-.78a3.73,3.73,0,0,1,3.46-2.25,2.68,2.68,0,0,1,2.84,2.44c0,1.72-1.45,2-2.31,3.51Z"/><path class="cls-1" d="M466.9,201c0-1.83,0-3.37-.14-4.74h3.61l.17,2.35h.1a5.79,5.79,0,0,1,5.11-2.71,4.8,4.8,0,0,1,4.6,2.94h.07a6,6,0,0,1,2-2,5.7,5.7,0,0,1,3.34-.95c2.75,0,5.55,1.8,5.55,6.9v9.38h-4.09v-8.8c0-2.64-.95-4.21-3-4.21a3.18,3.18,0,0,0-2.93,2.12,5.61,5.61,0,0,0-.21,1.34v9.55h-4.08v-9.22c0-2.22-.92-3.79-2.86-3.79a3.23,3.23,0,0,0-3,2.29,3.3,3.3,0,0,0-.24,1.3v9.42H466.9Z"/><path class="cls-1" d="M239.59,88.07l2.12-9.64h6.66l1.64-7.3,15.65-8.76-3.44,16h8.1l-2.09,9.66-8.18-.1-4.42,19.68a58.07,58.07,0,0,0-1.19,6.11,2.75,2.75,0,0,0,1,2.27,5.11,5.11,0,0,0,3.42.92c.6,0,2.1-.11,4.52-.31l-2.15,9.42a39,39,0,0,1-7.23.66q-7.23,0-10.51-2.59a8.62,8.62,0,0,1-3.28-7.18A62,62,0,0,1,242,107l4.23-18.88Z"/><path class="cls-2" d="M332,102.52l14.47,2.11c-2.87,7.32-6.63,12.76-12.36,16.62a34.39,34.39,0,0,1-19.84,6.09q-13,0-20.33-7.2t-7.32-20.89a42.65,42.65,0,0,1,4.91-20.34,34.16,34.16,0,0,1,13.6-14.11A38,38,0,0,1,324,59.91c7.66,0,13.56,2,18.13,6s7,8.67,7.88,15.19l-14,1.18c-.78-3.79-1.79-6-4-7.72a12.65,12.65,0,0,0-8.3-2.81,20.33,20.33,0,0,0-11.33,3.09q-5.24,3.39-8.38,10.56a35.45,35.45,0,0,0-3.14,14.34q0,7.82,4.08,12.09A13.5,13.5,0,0,0,315.23,116a16.22,16.22,0,0,0,9.92-3.45C328.29,110.26,330.4,106.93,332,102.52Z"/><path class="cls-2" d="M369.71,92l-13.42-1.07a19,19,0,0,1,8-9.87q5.73-3.57,15.17-3.56,9.83,0,14.53,3.67a11,11,0,0,1,4.7,9,27.33,27.33,0,0,1-.41,4.54q-.4,2.4-2.85,12.64-2,8.44-2,11.83a23,23,0,0,0,1.15,6.72H381.22a23.24,23.24,0,0,1-1-5.34,21.11,21.11,0,0,1-6.95,4.79,20.14,20.14,0,0,1-7.91,1.67,14.74,14.74,0,0,1-10.45-3.85,12.94,12.94,0,0,1-4.12-9.9,13.8,13.8,0,0,1,4.53-10.82q4.53-4.05,16.18-4.89,9.83-.75,13.13-1.82a14.69,14.69,0,0,0,.87-4.28A4.2,4.2,0,0,0,383.71,88a8.48,8.48,0,0,0-5.27-1.38,10.53,10.53,0,0,0-5.82,1.4A7,7,0,0,0,369.71,92Zm13.09,11.84a29.83,29.83,0,0,1-3.31.58q-10.35,1.15-13.51,3.38a5,5,0,0,0-2.26,4.31,4.83,4.83,0,0,0,1.73,3.76,6.57,6.57,0,0,0,4.55,1.54,12.79,12.79,0,0,0,5.87-1.4A10.09,10.09,0,0,0,380,112.4a23.58,23.58,0,0,0,2.42-6.87Z"/><path class="cls-2" d="M413.09,78.41h12.77l-2.05,9.13Q431,77.31,439.29,77.31a16.84,16.84,0,0,1,6.34,1.37l-5.24,10.41a12.54,12.54,0,0,0-4-.62A12.7,12.7,0,0,0,429.27,91a17,17,0,0,0-5.7,6.62q-2,4.16-4.05,13.14l-3.33,14.76H402.51Z"/><path class="cls-2" d="M489.42,105.62H455c0,.51-.05.89-.05,1.16a10.29,10.29,0,0,0,2.89,7.61,9.59,9.59,0,0,0,7,2.89q6.84,0,10.66-6.59l12.28,1.92A24.63,24.63,0,0,1,478.26,123a26.52,26.52,0,0,1-13.46,3.45q-10.23,0-16.63-6t-6.4-16a27.61,27.61,0,0,1,5.78-17.26q7.89-10.25,22.51-10.24,9.31,0,14.82,5.36t5.49,15A33.1,33.1,0,0,1,489.42,105.62Zm-11.57-7.79c0-.56,0-1,0-1.29,0-3.5-.85-6.12-2.53-7.87A9,9,0,0,0,468.58,86,11.2,11.2,0,0,0,461,89q-3.37,3-4.57,8.81Z"/><path class="cls-1" d="M232.4,106H198c0,.51,0,.89,0,1.16a10.29,10.29,0,0,0,2.89,7.61,9.59,9.59,0,0,0,7,2.89q6.83,0,10.66-6.59L230.82,113a24.63,24.63,0,0,1-9.58,10.34,26.52,26.52,0,0,1-13.46,3.45q-10.23,0-16.63-6t-6.41-15.95a27.62,27.62,0,0,1,5.79-17.26Q198.42,77.26,213,77.26q9.32,0,14.82,5.36t5.49,15A33.57,33.57,0,0,1,232.4,106Zm-11.57-7.78c0-.57,0-1,0-1.29,0-3.5-.85-6.13-2.53-7.88a9,9,0,0,0-6.79-2.63,11.21,11.21,0,0,0-7.63,3q-3.36,3-4.56,8.81Z"/><path class="cls-2" d="M9.61,20.24S49.18-5.55,113.91,1.09c0,0-30.51,15.45-52.15,50.56,0,0-8.62,12.89,15.19,18.51,0,0,2.87-15.45,23.42-37C119.4,13.6,129.1,15,129.1,15s3.4,41.61-30,93c0,0-23,36.06-58.72,18.71C21.52,115,6,67.35,9.61,20.24Z"/><path class="cls-1" d="M155.46,9.45S176.91,18.39,180,20.62c0,0,4.79,56.26-23.13,98.64-22.6,34.9-61.78,54.13-61.78,54.13s-18.75-7.81-32.66-20.83c0,0,40,5.34,66.8-43.85S155.46,9.45,155.46,9.45Z"/></svg>